<?xml version="1.0" encoding="UTF-8"?>
<svg width="24px" height="16px" viewBox="0 0 24 16" version="1.1" xmlns="http://www.w3.org/2000/svg" xmlns:xlink="http://www.w3.org/1999/xlink">
    <!-- Generator: Sketch 55 (78076) - https://sketchapp.com -->
    <title>envelope (1)</title>
    <desc>Created with Sketch.</desc>
    <g id="Page-1" stroke="none" stroke-width="1" fill="none" fill-rule="evenodd">
        <g id="Investors-Relations" transform="translate(-539.000000, -7820.000000)" fill="#FFFFFF">
            <g id="EG-NCO-00509" transform="translate(0.000000, 7594.000000)">
                <g id="Pattern" transform="translate(10.000000, 0.000000)">
                    <g id="Group-27" transform="translate(469.000000, 221.000000)">
                        <g id="Group-25" transform="translate(60.000000, 0.000000)">
                            <g id="envelope-(1)" transform="translate(0.000000, 5.000000)">
                                <path d="M23.3570377,1.33333333 L15.3333333,7.58810408 L23.3735343,14.6666667 C23.560345,14.3053187 23.6666667,13.8940256 23.6666667,13.4575513 L23.6666667,2.57467874 C23.6666667,2.12526607 23.5543174,1.70228671 23.3570377,1.33333333 Z" id="Path"></path>
                                <path d="M21.0288666,0 L2.39500489,0 C1.88209503,0 1.4036493,0.144922476 1,0.393967079 L11.2826945,7.86228126 C11.5403371,8.04552176 11.8855371,8.04588283 12.1435988,7.86349985 L22.3333333,0.340619721 C21.949431,0.124432035 21.5040057,0 21.0288666,0 Z" id="Path"></path>
                                <path d="M14.0194424,8.33333333 L13.0759867,9.06595295 C12.7038996,9.34595254 12.2676644,9.48597572 11.8316126,9.48597572 C11.3954691,9.48597572 10.9594633,9.34599931 10.5872385,9.06595295 L10.5832465,9.0629598 L9.64107556,8.34324813 L1.33333333,15.6285223 C1.7185896,15.8641859 2.16904945,16 2.65011504,16 L21.0089805,16 C21.4931663,16 21.9464252,15.8625491 22.3333333,15.6240794 L14.0194424,8.33333333 Z" id="Path"></path>
                                <path d="M0.264670502,1.66666667 C0.0955716792,2.00737119 0,2.39088557 0,2.79664651 L0,13.4730407 C0,13.9041873 0.107773284,14.3104487 0.297238355,14.6666667 L8.33333333,7.73188056 L0.264670502,1.66666667 Z" id="Path"></path>
                            </g>
                        </g>
                    </g>
                </g>
            </g>
        </g>
    </g>
</svg>