<?xml version="1.0" encoding="UTF-8"?>
<svg width="404px" height="237px" viewBox="0 0 404 237" version="1.1" xmlns="http://www.w3.org/2000/svg" xmlns:xlink="http://www.w3.org/1999/xlink">
    <title>Pattern Copy 2</title>
    <g id="Page-1" stroke="none" stroke-width="1" fill="none" fill-rule="evenodd" opacity="0.1">
        <g id="Investors-Relations" transform="translate(-1164.000000, -985.000000)">
            <g id="Pattern-Copy-2" transform="translate(1164.000000, 985.000000)">
                <g id="Pattern" transform="translate(167.500000, 118.500000) scale(-1, 1) translate(-167.500000, -118.500000) ">
                    <path d="M127.142189,0.5 L64,111.985427 L0.857811128,0.5 L127.142189,0.5 Z" id="Rectangle" stroke="#F4F4F4"></path>
                    <path d="M196.142189,121.5 L133,232.985427 L69.8578111,121.5 L196.142189,121.5 Z" id="Rectangle" stroke="#F4F4F4"></path>
                    <path d="M334.142189,121.5 L271,232.985427 L207.857811,121.5 L334.142189,121.5 Z" id="Rectangle" stroke="#F4F4F4"></path>
                    <path d="M127.142189,124.5 L64,235.985427 L0.857811128,124.5 L127.142189,124.5 Z" id="Rectangle" stroke="#F4F4F4" transform="translate(64.000000, 180.500000) scale(1, -1) translate(-64.000000, -180.500000) "></path>
                    <path d="M265.142189,124.5 L202,235.985427 L138.857811,124.5 L265.142189,124.5 Z" id="Rectangle" stroke="#F4F4F4" transform="translate(202.000000, 180.500000) scale(1, -1) translate(-202.000000, -180.500000) "></path>
                    <path d="M196.142189,3.5 L133,114.985427 L69.8578111,3.5 L196.142189,3.5 Z" id="Rectangle" stroke="#003E7E" transform="translate(133.000000, 59.500000) scale(1, -1) translate(-133.000000, -59.500000) "></path>
                    <path d="M265.142189,0.5 L202,111.985427 L138.857811,0.5 L265.142189,0.5 Z" id="Rectangle" stroke="#003E7E"></path>
                </g>
                <g id="Pattern" transform="translate(202.000000, 179.000000) scale(-1, 1) translate(-202.000000, -179.000000) translate(0.000000, 121.000000)" stroke="#003E7E">
                    <path d="M127.142189,0.5 L64,111.985427 L0.857811128,0.5 L127.142189,0.5 Z" id="Rectangle"></path>
                    <path d="M265.142189,0.5 L202,111.985427 L138.857811,0.5 L265.142189,0.5 Z" id="Rectangle"></path>
                    <path d="M403.142189,0.5 L340,111.985427 L276.857811,0.5 L403.142189,0.5 Z" id="Rectangle"></path>
                    <path d="M196.142189,3.5 L133,114.985427 L69.8578111,3.5 L196.142189,3.5 Z" id="Rectangle" transform="translate(133.000000, 59.500000) scale(1, -1) translate(-133.000000, -59.500000) "></path>
                    <path d="M334.142189,3.5 L271,114.985427 L207.857811,3.5 L334.142189,3.5 Z" id="Rectangle" transform="translate(271.000000, 59.500000) scale(1, -1) translate(-271.000000, -59.500000) "></path>
                </g>
            </g>
        </g>
    </g>
</svg>