<?xml version="1.0" encoding="UTF-8"?>
<svg width="404px" height="355px" viewBox="0 0 404 355" version="1.1" xmlns="http://www.w3.org/2000/svg" xmlns:xlink="http://www.w3.org/1999/xlink">
    <title>Pattern</title>
    <g id="Page-1" stroke="none" stroke-width="1" fill="none" fill-rule="evenodd" opacity="0.1">
        <g id="About-Us-2" transform="translate(-1164.000000, -3076.000000)">
            <g id="Pattern" transform="translate(1366.000000, 3253.500000) scale(1, -1) translate(-1366.000000, -3253.500000) translate(1164.000000, 3076.000000)">
                <g transform="translate(167.500000, 177.500000) scale(-1, 1) translate(-167.500000, -177.500000) " id="Rectangle">
                    <path d="M127.142189,118.5 L64,229.985427 L0.857811128,118.5 L127.142189,118.5 Z" stroke="#F4F4F4"></path>
                    <path d="M196.142189,239.5 L133,350.985427 L69.8578111,239.5 L196.142189,239.5 Z" stroke="#F4F4F4"></path>
                    <path d="M334.142189,239.5 L271,350.985427 L207.857811,239.5 L334.142189,239.5 Z" stroke="#F4F4F4"></path>
                    <path d="M127.142189,242.5 L64,353.985427 L0.857811128,242.5 L127.142189,242.5 Z" stroke="#F4F4F4" transform="translate(64.000000, 298.500000) scale(1, -1) translate(-64.000000, -298.500000) "></path>
                    <path d="M265.142189,242.5 L202,353.985427 L138.857811,242.5 L265.142189,242.5 Z" stroke="#F4F4F4" transform="translate(202.000000, 298.500000) scale(1, -1) translate(-202.000000, -298.500000) "></path>
                    <path d="M196.142189,121.5 L133,232.985427 L69.8578111,121.5 L196.142189,121.5 Z" stroke="#003E7E" transform="translate(133.000000, 177.500000) scale(1, -1) translate(-133.000000, -177.500000) "></path>
                    <path d="M265.142189,0.5 L202,111.985427 L138.857811,0.5 L265.142189,0.5 Z" stroke="#003E7E" transform="translate(202.000000, 56.500000) scale(1, -1) translate(-202.000000, -56.500000) "></path>
                    <path d="M265.142189,118.5 L202,229.985427 L138.857811,118.5 L265.142189,118.5 Z" stroke="#003E7E"></path>
                    <path d="M127.142189,118.5 L64,229.985427 L0.857811128,118.5 L127.142189,118.5 Z" stroke="#003E7E"></path>
                    <path d="M127.142189,118.5 L64,229.985427 L0.857811128,118.5 L127.142189,118.5 Z" stroke="#003E7E"></path>
                </g>
                <g transform="translate(202.000000, 297.000000) scale(-1, 1) translate(-202.000000, -297.000000) translate(0.000000, 239.000000)" id="Rectangle" stroke="#003E7E">
                    <path d="M127.142189,0.5 L64,111.985427 L0.857811128,0.5 L127.142189,0.5 Z"></path>
                    <path d="M265.142189,0.5 L202,111.985427 L138.857811,0.5 L265.142189,0.5 Z"></path>
                    <path d="M403.142189,0.5 L340,111.985427 L276.857811,0.5 L403.142189,0.5 Z"></path>
                    <path d="M196.142189,3.5 L133,114.985427 L69.8578111,3.5 L196.142189,3.5 Z" transform="translate(133.000000, 59.500000) scale(1, -1) translate(-133.000000, -59.500000) "></path>
                    <path d="M334.142189,3.5 L271,114.985427 L207.857811,3.5 L334.142189,3.5 Z" transform="translate(271.000000, 59.500000) scale(1, -1) translate(-271.000000, -59.500000) "></path>
                </g>
            </g>
        </g>
    </g>
</svg>